<?xml version="1.0" ?>
<!-- Uploaded to: SVG Repo, www.svgrepo.com, Generator: SVG Repo Mixer Tools -->
<svg width="800px" height="800px" viewBox="0 0 50 50" id="Message_And_Communication_Icons" version="1.1" xml:space="preserve" xmlns="http://www.w3.org/2000/svg" xmlns:xlink="http://www.w3.org/1999/xlink">
<g>
<g>
<g>
<g>
<path d="M4.4,10.7v19.1h41.2V10.7H4.4z M34.4,27H18.1v-1h-1V15.6h16.2v1h1V27z" style="fill:#4DE0F9;"/>
</g>
</g>
<g>
<g>
<rect height="1.2" style="fill:#0D5FC3;" width="2" x="24" y="30.9"/>
</g>
</g>
<g>
<g>
<polygon points="29.3,39.8 29.3,34.9 26.1,34.9 26.1,39.8 23.9,39.8 23.9,41 26.1,41 29.3,41 34.8,41       34.8,39.8     " style="fill:#4DE0F9;"/>
</g>
</g>
<g>
<g>
<g>
<path d="M46.2,34.5H3.8V8.4h42.4V34.5z M5,33.3h40V9.6H5V33.3z" style="fill:#0D5FC3;"/>
</g>
</g>
<g>
<g>
<rect height="6.1" style="fill:#0D5FC3;" width="1.2" x="21.3" y="33.9"/>
</g>
</g>
<g>
<g>
<rect height="6.1" style="fill:#0D5FC3;" width="1.2" x="27.5" y="33.9"/>
</g>
</g>
<g>
<g>
<rect height="1.2" style="fill:#0D5FC3;" width="18.8" x="15.6" y="39.4"/>
</g>
</g>
</g>
<g>
<g>
<rect height="1.2" style="fill:#0D5FC3;" width="1.3" x="24.4" y="10.3"/>
</g>
</g>
</g>
<g>
<g>
<g>
<path d="M34,26.6H16.5V15H34V26.6z M17.7,25.4h15v-9.1h-15V25.4z" style="fill:#0D5FC3;"/>
</g>
</g>
<g>
<g>
<polygon points="25.3,21.5 16.8,16.1 17.5,15.1 25.3,20.1 33.1,15.1 33.7,16.1     " style="fill:#0D5FC3;"/>
</g>
</g>
</g>
</g>
</svg>